<?xml version="1.0" ?><svg id="Capa_1" style="enable-background:new 0 0 512 512;" version="1.1" viewBox="0 0 512 512" xml:space="preserve" xmlns="http://www.w3.org/2000/svg" xmlns:xlink="http://www.w3.org/1999/xlink"><g><g><g><path d="M156,139.295h-40c-5.523,0-10,4.477-10,10v39.998c0,5.522,4.477,10,10,10h40c5.523,0,10-4.478,10-10v-39.998     C166,143.772,161.523,139.295,156,139.295z M146,179.293h-20v-19.998h20V179.293z"/><path d="M156,239.29h-40c-5.523,0-10,4.478-10,10v40.003c0,5.522,4.477,10,10,10h40c5.523,0,10-4.478,10-10V249.29     C166,243.768,161.523,239.29,156,239.29z M146,279.293h-20V259.29h20V279.293z"/><path d="M156,339.286h-40c-5.523,0-10,4.478-10,10v40.002c0,5.522,4.477,10,10,10h40c5.523,0,10-4.478,10-10v-40.002     C166,343.764,161.523,339.286,156,339.286z M146,379.288h-20v-20.002h20V379.288z"/><path d="M275.998,139.295h-9.996V98.969c0-5.522-4.478-10-10-10c-5.524,0-10,4.478-10,10v40.326h-10.004c-5.523,0-10,4.477-10,10     v39.998c0,5.522,4.478,10,10,10h40c5.523,0,10-4.478,10-10v-39.998C285.998,143.772,281.521,139.295,275.998,139.295z      M265.998,179.293h-20v-19.998h20V179.293z"/><path d="M275.998,239.29h-40c-5.523,0-10,4.478-10,10v40.003c0,5.522,4.478,10,10,10h40c5.523,0,10-4.478,10-10V249.29     C285.998,243.768,281.521,239.29,275.998,239.29z M265.998,279.293h-20V259.29h20V279.293z"/><path d="M355.993,139.295c-5.522,0-10,4.477-10,10v39.998c0,5.522,4.478,10,10,10h40.001c5.522,0,10-4.478,10-10v-39.998     c0-5.523-4.478-10-10-10H355.993z M385.994,179.293h-20.001v-19.998h20.001V179.293z"/><path d="M395.994,239.29h-40.001c-5.522,0-10,4.478-10,10v40.003c0,5.522,4.478,10,10,10h40.001c5.522,0,10-4.478,10-10V249.29     C405.994,243.768,401.516,239.29,395.994,239.29z M385.994,279.293h-20.001V259.29h20.001V279.293z"/><path d="M395.994,339.286h-40.001c-5.522,0-10,4.478-10,10v40.002c0,5.522,4.478,10,10,10h40.001c5.522,0,10-4.478,10-10v-40.002     C405.994,343.764,401.516,339.286,395.994,339.286z M385.994,379.288h-20.001v-20.002h20.001V379.288z"/><path d="M136.002,452.006h-0.235c-5.523,0-10,4.478-10,10c0,5.522,4.477,10,10,10h0.235c5.523,0,10-4.478,10-10     C146.002,456.483,141.525,452.006,136.002,452.006z"/><path d="M376.234,452.002h-0.236c-5.522,0-10,4.478-10,10c0,5.523,4.478,10,10,10h0.236c5.523,0,10-4.477,10-10     S381.758,452.002,376.234,452.002z"/><path d="M256.002,80.238c5.522,0,10-4.478,10-10v-0.236c0-5.522-4.478-10-10-10c-5.524,0-10,4.478-10,10v0.236     C246.002,75.761,250.479,80.238,256.002,80.238z"/><path d="M36.236,492H36c-5.522,0-10,4.478-10,10c0,5.522,4.477,10,10,10h0.236c5.523,0,10-4.478,10-10     C46.236,496.478,41.76,492,36.236,492z"/><path d="M476,492h-0.238c-5.522,0-10,4.478-10,10c0,5.522,4.478,10,10,10H476c5.523,0,10-4.478,10-10     C486,496.478,481.523,492,476,492z"/><path d="M447.033,492H446V110c0-5.522-4.477-10-10-10c-16.543,0-30-13.457-30-29.998c0-5.522-4.478-10-10-10h-70.713     C320.42,26.123,291.203,0,256.002,0c-35.203,0-64.421,26.123-69.288,60.002H116c-5.523,0-10,4.478-10,10     C106,86.543,92.542,100,76.001,100c-5.522,0-10,4.478-10,10v382h-1.033c-5.523,0-10,4.478-10,10c0,5.522,4.478,10,10,10h11.033     H196h120.001H436h11.033c5.523,0,10-4.478,10-10C457.033,496.478,452.557,492,447.033,492z M306.001,492H206v-10.001h100.001V492     z M235.998,400.643h-9.996v-41.357H286v102.713h-59.998v0v-41.356h9.996c5.523,0,10-4.478,10-10     C245.998,405.12,241.521,400.643,235.998,400.643z M426,452.002h-21.036c-5.522,0-10,4.478-10,10c0,5.523,4.478,10,10,10H426V492     h-99.999v-20.001c0-5.522-4.478-10-10-10H306V349.286c0-5.522-4.477-10-10-10h-79.998c-5.523,0-10,4.478-10,10v112.713H196     c-5.523,0-10,4.478-10,10V492H86.001v-19.998h21.034c5.523,0,10-4.477,10-10c0-5.522-4.477-10-10-10H86.001V118.995     c19.561-3.986,35.007-19.433,38.994-38.993h71.007c5.523,0,10-4.478,10-10c0-27.571,22.43-50.002,50-50.002     c27.568,0,49.997,22.431,49.997,50.002c0,5.522,4.478,10,10,10h71.005c3.987,19.561,19.435,35.007,38.996,38.993V452.002z"/></g></g></g><g/><g/><g/><g/><g/><g/><g/><g/><g/><g/><g/><g/><g/><g/><g/></svg>