<svg width="460" height="98" viewBox="0 0 460 98" fill="none" xmlns="http://www.w3.org/2000/svg">
<path d="M61.888 61.888C61.888 63.7547 62.1493 65.024 62.672 65.696C63.232 66.3307 64.2587 66.6853 65.752 66.76C65.9387 67.2827 66.032 68.0853 66.032 69.168C63.792 69.056 61.5333 69 59.256 69C56.6427 69 54.384 69.056 52.48 69.168C52.48 68.0853 52.5733 67.2827 52.76 66.76C54.2533 66.6853 55.2613 66.3307 55.784 65.696C56.344 65.024 56.624 63.7547 56.624 61.888V50.8C48.0747 50.8 42.3813 50.912 39.544 51.136V61.888C39.544 63.7547 39.8053 65.024 40.328 65.696C40.888 66.3307 41.9147 66.6853 43.408 66.76C43.5947 67.2827 43.688 68.0853 43.688 69.168C41.448 69.056 39.1893 69 36.912 69C34.2987 69 32.04 69.056 30.136 69.168C30.136 68.0853 30.2293 67.2827 30.416 66.76C31.9093 66.6853 32.9173 66.3307 33.44 65.696C34 65.024 34.28 63.7547 34.28 61.888V38.256C34.28 36.3893 34 35.1387 33.44 34.504C32.9173 33.832 31.9093 33.4587 30.416 33.384C30.2293 32.8613 30.136 32.0587 30.136 30.976C32.1893 31.088 34.448 31.144 36.912 31.144C39.1893 31.144 41.448 31.088 43.688 30.976C43.688 32.0587 43.5947 32.8613 43.408 33.384C41.9147 33.4587 40.888 33.832 40.328 34.504C39.8053 35.1387 39.544 36.3893 39.544 38.256V48.392H56.624V38.256C56.624 36.3893 56.344 35.1387 55.784 34.504C55.2613 33.832 54.2533 33.4587 52.76 33.384C52.5733 32.8613 52.48 32.0587 52.48 30.976C54.5333 31.088 56.792 31.144 59.256 31.144C61.5333 31.144 63.792 31.088 66.032 30.976C66.032 32.0587 65.9387 32.8613 65.752 33.384C64.2587 33.4587 63.232 33.832 62.672 34.504C62.1493 35.1387 61.888 36.3893 61.888 38.256V61.888ZM89.6041 69.504C85.9827 69.504 82.7721 68.664 79.9721 66.984C77.1721 65.2667 74.9881 62.9333 73.4201 59.984C71.8894 56.9973 71.1241 53.656 71.1241 49.96C71.1241 46.2267 71.9267 42.904 73.5321 39.992C75.1747 37.0427 77.3961 34.7467 80.1961 33.104C83.0334 31.4613 86.1694 30.64 89.6041 30.64C93.1507 30.64 96.3241 31.4613 99.1241 33.104C101.961 34.7093 104.164 36.9867 105.732 39.936C107.337 42.848 108.14 46.1893 108.14 49.96C108.14 53.6187 107.337 56.9413 105.732 59.928C104.164 62.8773 101.961 65.2107 99.1241 66.928C96.3241 68.6453 93.1507 69.504 89.6041 69.504ZM90.7241 66.76C93.0761 66.76 95.1294 66.088 96.8841 64.744C98.6761 63.4 100.039 61.5707 100.972 59.256C101.905 56.904 102.372 54.2907 102.372 51.416C102.372 48.0933 101.756 45.0507 100.524 42.288C99.3294 39.5253 97.6681 37.3413 95.5401 35.736C93.4121 34.1307 91.0414 33.328 88.4281 33.328C86.2254 33.328 84.2467 33.9627 82.4921 35.232C80.7374 36.5013 79.3561 38.2747 78.3481 40.552C77.3774 42.8293 76.8921 45.4613 76.8921 48.448C76.8921 51.6587 77.4334 54.664 78.5161 57.464C79.6361 60.264 81.2414 62.5227 83.3321 64.24C85.4227 65.92 87.8867 66.76 90.7241 66.76ZM130.957 48.448C138.274 48.8587 141.933 52.032 141.933 57.968C141.933 61.2533 140.813 63.9227 138.573 65.976C136.37 67.992 133.01 69 128.493 69C121.138 69 116.061 69.056 113.261 69.168C113.261 68.0853 113.354 67.2827 113.541 66.76C114.586 66.6853 115.37 66.4987 115.893 66.2C116.453 65.9013 116.845 65.3787 117.069 64.632C117.33 63.848 117.461 62.728 117.461 61.272V38.256C117.461 36.3893 117.181 35.1387 116.621 34.504C116.098 33.832 115.09 33.4587 113.597 33.384C113.41 32.8613 113.317 32.0587 113.317 30.976C114.81 31.088 116.752 31.144 119.141 31.144L123.173 31.088C124.069 31.0507 125.394 31.032 127.149 31.032C130.808 31.032 133.701 31.648 135.829 32.88C137.994 34.0747 139.077 36.184 139.077 39.208C139.077 41.6347 138.33 43.688 136.837 45.368C135.381 47.048 133.421 48.0747 130.957 48.448ZM133.365 40.888C133.365 38.2747 132.525 36.3893 130.845 35.232C129.202 34.0747 127.261 33.496 125.021 33.496C124.2 33.496 123.434 33.5893 122.725 33.776V48H124.461C130.397 48 133.365 45.6293 133.365 40.888ZM127.933 66.592C130.621 66.592 132.618 65.92 133.925 64.576C135.269 63.1947 135.941 61.2533 135.941 58.752C135.941 53.1893 131.965 50.408 124.013 50.408H122.725V61.272C122.725 62.84 122.856 63.9973 123.117 64.744C123.416 65.4533 123.92 65.9387 124.629 66.2C125.338 66.4613 126.44 66.592 127.933 66.592ZM165.456 69.504C161.834 69.504 158.624 68.664 155.824 66.984C153.024 65.2667 150.84 62.9333 149.272 59.984C147.741 56.9973 146.976 53.656 146.976 49.96C146.976 46.2267 147.778 42.904 149.384 39.992C151.026 37.0427 153.248 34.7467 156.048 33.104C158.885 31.4613 162.021 30.64 165.456 30.64C169.002 30.64 172.176 31.4613 174.976 33.104C177.813 34.7093 180.016 36.9867 181.584 39.936C183.189 42.848 183.992 46.1893 183.992 49.96C183.992 53.6187 183.189 56.9413 181.584 59.928C180.016 62.8773 177.813 65.2107 174.976 66.928C172.176 68.6453 169.002 69.504 165.456 69.504ZM166.576 66.76C168.928 66.76 170.981 66.088 172.736 64.744C174.528 63.4 175.89 61.5707 176.824 59.256C177.757 56.904 178.224 54.2907 178.224 51.416C178.224 48.0933 177.608 45.0507 176.376 42.288C175.181 39.5253 173.52 37.3413 171.392 35.736C169.264 34.1307 166.893 33.328 164.28 33.328C162.077 33.328 160.098 33.9627 158.344 35.232C156.589 36.5013 155.208 38.2747 154.2 40.552C153.229 42.8293 152.744 45.4613 152.744 48.448C152.744 51.6587 153.285 54.664 154.368 57.464C155.488 60.264 157.093 62.5227 159.184 64.24C161.274 65.92 163.738 66.76 166.576 66.76ZM214.873 59.424C215.955 59.76 216.777 60.208 217.337 60.768C216.627 62.9707 216.049 65.752 215.601 69.112C212.689 69.0373 208.694 69 203.617 69C196.747 69 191.913 69.056 189.113 69.168C189.113 68.0853 189.206 67.2827 189.393 66.76C190.438 66.6853 191.222 66.4987 191.745 66.2C192.305 65.9013 192.697 65.3787 192.921 64.632C193.145 63.8853 193.257 62.7653 193.257 61.272V38.256C193.257 36.3893 192.977 35.1387 192.417 34.504C191.894 33.832 190.886 33.4587 189.393 33.384C189.206 32.8613 189.113 32.0587 189.113 30.976C191.315 31.088 194.451 31.144 198.521 31.144C205.315 31.144 210.561 31.088 214.257 30.976C214.63 35.0827 215.022 38.032 215.433 39.824C214.873 40.272 214.033 40.496 212.913 40.496C212.726 38.4053 211.961 36.7067 210.617 35.4C209.31 34.056 207.014 33.384 203.729 33.384H198.521V48.728H202.049C204.401 48.728 206.006 48.4293 206.865 47.832C207.761 47.1973 208.227 45.984 208.265 44.192C209.161 43.9307 210.057 43.8 210.953 43.8C210.878 45.0693 210.841 47.104 210.841 49.904C210.841 52.9653 210.878 55.1307 210.953 56.4C209.945 56.4 209.086 56.3067 208.377 56.12C208.227 54.1787 207.705 52.872 206.809 52.2C205.95 51.4907 204.363 51.136 202.049 51.136H198.521V61.272C198.521 62.6907 198.651 63.7733 198.913 64.52C199.174 65.2293 199.659 65.7333 200.369 66.032C201.115 66.3307 202.198 66.48 203.617 66.48H203.953C206.529 66.48 208.507 66.2187 209.889 65.696C211.27 65.1733 212.278 64.4453 212.913 63.512C213.585 62.5787 214.238 61.216 214.873 59.424Z" fill="black"/>
<path d="M278.624 48.392C285.941 48.84 289.6 52.0507 289.6 58.024C289.6 61.3467 288.405 64.016 286.016 66.032C283.627 68.0107 279.949 69 274.984 69C267.816 69 262.403 69.056 258.744 69.168C258.744 67.7867 258.856 66.7973 259.08 66.2C260.125 66.1253 260.909 65.9387 261.432 65.64C261.992 65.3413 262.384 64.8 262.608 64.016C262.832 63.1947 262.944 62.0187 262.944 60.488V39.152C262.944 37.7707 262.832 36.7253 262.608 36.016C262.384 35.3067 261.992 34.8027 261.432 34.504C260.909 34.2053 260.125 34.0187 259.08 33.944C258.893 33.272 258.8 32.2827 258.8 30.976C260.256 31.088 262.216 31.144 264.68 31.144C266.659 31.144 268.189 31.1253 269.272 31.088L274.032 31.032C278.251 31.032 281.461 31.6667 283.664 32.936C285.867 34.2053 286.968 36.3333 286.968 39.32C286.968 41.7093 286.221 43.7253 284.728 45.368C283.235 47.0107 281.2 48.0187 278.624 48.392ZM279.744 41C279.744 38.6107 278.997 36.856 277.504 35.736C276.048 34.5787 274.293 34 272.24 34C271.493 34 270.691 34.112 269.832 34.336V47.832H271.624C277.037 47.832 279.744 45.5547 279.744 41ZM274.648 66.088C277 66.088 278.792 65.4533 280.024 64.184C281.256 62.8773 281.872 61.0667 281.872 58.752C281.872 53.4133 278.307 50.744 271.176 50.744H269.832V60.656C269.832 62.224 269.981 63.4 270.28 64.184C270.579 64.9307 271.064 65.4347 271.736 65.696C272.408 65.9573 273.379 66.088 274.648 66.088ZM310.289 52.312C312.342 52.312 314.022 51.6587 315.329 50.352C316.673 49.0453 317.345 46.8427 317.345 43.744C317.345 40.72 316.635 38.3493 315.217 36.632C313.835 34.9147 311.689 34.056 308.776 34.056C307.918 34.056 307.022 34.168 306.089 34.392V59.984C306.089 61.5893 306.257 62.84 306.593 63.736C306.966 64.5947 307.526 65.2107 308.273 65.584C309.019 65.92 310.065 66.1253 311.409 66.2C311.633 66.8347 311.745 67.824 311.745 69.168C309.915 69.056 307.209 69 303.625 69C299.667 69 296.811 69.056 295.057 69.168C295.057 67.7867 295.15 66.7973 295.337 66.2C296.382 66.1253 297.166 65.9387 297.689 65.64C298.249 65.3413 298.641 64.8373 298.865 64.128C299.089 63.4187 299.201 62.3547 299.201 60.936V39.152C299.201 37.7707 299.089 36.7253 298.865 36.016C298.641 35.3067 298.267 34.8027 297.745 34.504C297.222 34.2053 296.438 34.0187 295.393 33.944C295.169 33.16 295.057 32.1707 295.057 30.976C297.11 31.088 299.779 31.144 303.065 31.144L307.825 31.088C308.795 31.0507 309.953 31.032 311.297 31.032C315.963 31.032 319.342 32.0587 321.433 34.112C323.561 36.128 324.625 38.7973 324.625 42.12C324.625 44.5093 324.121 46.7307 323.113 48.784C322.105 50.8 320.611 52.424 318.633 53.656C316.654 54.8507 314.283 55.448 311.521 55.448C309.953 55.448 308.646 55.2427 307.601 54.832C307.526 54.384 307.489 54.0293 307.489 53.768C307.489 53.1707 307.601 52.592 307.825 52.032C308.459 52.2187 309.281 52.312 310.289 52.312ZM355.722 58.808C357.178 59.0693 358.298 59.5733 359.082 60.32C358.26 62.8587 357.682 65.7893 357.346 69.112C353.986 69.0373 349.748 69 344.634 69C337.204 69 332.108 69.056 329.346 69.168C329.346 67.7867 329.458 66.7973 329.682 66.2C330.727 66.1253 331.511 65.9387 332.034 65.64C332.556 65.3413 332.93 64.8 333.154 64.016C333.378 63.232 333.49 62.056 333.49 60.488V39.152C333.49 37.7707 333.378 36.7253 333.154 36.016C332.93 35.3067 332.538 34.8027 331.978 34.504C331.455 34.2053 330.671 34.0187 329.626 33.944C329.439 33.272 329.346 32.2827 329.346 30.976C331.884 31.088 335.543 31.144 340.322 31.144C346.332 31.144 351.522 31.088 355.89 30.976C356.263 35.1947 356.655 38.256 357.066 40.16C356.244 40.6453 355.124 40.888 353.706 40.888C353.482 38.76 352.735 37.08 351.466 35.848C350.196 34.5787 348.012 33.944 344.914 33.944H340.378V48.56H342.954C345.119 48.56 346.612 48.2613 347.434 47.664C348.255 47.0293 348.684 45.8533 348.722 44.136C349.618 43.8373 350.719 43.688 352.026 43.688C351.914 45.5173 351.858 47.5893 351.858 49.904C351.858 52.4053 351.914 54.5893 352.026 56.456C350.644 56.456 349.58 56.344 348.834 56.12C348.684 54.2907 348.199 53.0587 347.378 52.424C346.556 51.7893 345.082 51.472 342.954 51.472H340.378V60.432C340.378 61.9627 340.508 63.12 340.77 63.904C341.068 64.688 341.554 65.248 342.226 65.584C342.935 65.8827 343.962 66.032 345.306 66.032H345.81C348.012 66.032 349.73 65.7707 350.962 65.248C352.231 64.7253 353.183 63.9787 353.818 63.008C354.49 62.0373 355.124 60.6373 355.722 58.808ZM412.296 66.144C412.52 67.0773 412.632 68.0853 412.632 69.168C410.952 69.056 408.32 69 404.736 69C401.6 69 399.155 69.056 397.4 69.168C397.4 68.0107 397.531 67.0213 397.792 66.2C399.173 66.0507 400.107 65.7333 400.592 65.248C401.077 64.7627 401.32 63.8667 401.32 62.56C401.32 61.7387 401.264 60.7493 401.152 59.592L399.248 41.448L387.936 69.112C387.264 69.3733 386.331 69.504 385.136 69.504L372.424 41.56L370.744 58.08C370.595 59.7973 370.52 60.8987 370.52 61.384C370.52 63.1387 370.8 64.3707 371.36 65.08C371.957 65.752 372.928 66.1253 374.272 66.2C374.496 66.9467 374.608 67.936 374.608 69.168C373.003 69.056 370.987 69 368.56 69C365.984 69 363.987 69.056 362.568 69.168C362.568 67.936 362.68 66.9467 362.904 66.2C363.949 66.1253 364.752 65.864 365.312 65.416C365.872 64.9307 366.32 64.1093 366.656 62.952C366.992 61.7947 367.272 60.0587 367.496 57.744L369.176 39.544C369.213 39.1707 369.232 38.6667 369.232 38.032C369.232 36.5013 368.952 35.4373 368.392 34.84C367.832 34.2427 366.861 33.944 365.48 33.944C365.256 33.2347 365.144 32.2453 365.144 30.976C366.413 31.088 368.168 31.144 370.408 31.144C372.461 31.144 374.197 31.088 375.616 30.976L388.552 60.04L399.752 30.976C401.245 31.088 403.037 31.144 405.128 31.144C407.032 31.144 408.768 31.088 410.336 30.976C410.336 32.208 410.224 33.1973 410 33.944C408.693 33.944 407.723 34.2613 407.088 34.896C406.453 35.4933 406.136 36.5947 406.136 38.2C406.136 38.536 406.173 39.0773 406.248 39.824L408.152 58.92C408.339 60.8987 408.581 62.392 408.88 63.4C409.179 64.3707 409.571 65.0613 410.056 65.472C410.579 65.8453 411.325 66.0693 412.296 66.144ZM444.395 60.936C444.395 62.3547 444.507 63.4187 444.731 64.128C444.955 64.8373 445.328 65.3413 445.851 65.64C446.374 65.9387 447.158 66.1253 448.203 66.2C448.427 67.0213 448.539 68.0107 448.539 69.168C446.598 69.056 444.19 69 441.315 69C437.806 69 435.267 69.056 433.699 69.168C433.699 67.8987 433.811 66.9093 434.035 66.2C434.968 66.1627 435.659 65.9947 436.107 65.696C436.592 65.3973 436.928 64.8747 437.115 64.128C437.339 63.3813 437.451 62.28 437.451 60.824V52.368C434.838 52.368 432.822 52.816 431.403 53.712C430.022 54.5707 429.07 55.6533 428.547 56.96C428.024 58.2667 427.595 59.9467 427.259 62C426.96 63.904 426.606 65.4347 426.195 66.592C425.822 67.712 425.206 68.6827 424.347 69.504C422.07 69.168 419.176 69 415.667 69C415.406 68.328 415.275 67.3947 415.275 66.2C416.507 66.088 417.478 65.7333 418.187 65.136C418.934 64.5387 419.475 63.8293 419.811 63.008C420.147 62.1867 420.502 61.0853 420.875 59.704C421.323 58.0987 421.771 56.792 422.219 55.784C422.667 54.7387 423.395 53.8053 424.403 52.984C425.448 52.1253 426.867 51.528 428.659 51.192C425.486 50.5947 423.059 49.4373 421.379 47.72C419.699 46.0027 418.859 43.8373 418.859 41.224C418.859 38.2373 420.035 35.792 422.387 33.888C424.739 31.9467 428.472 30.976 433.587 30.976L436.723 31.032C438.739 31.1067 440.363 31.144 441.595 31.144C444.768 31.144 447.083 31.088 448.539 30.976C448.539 32.0587 448.427 33.0293 448.203 33.888C447.158 33.9253 446.374 34.0933 445.851 34.392C445.328 34.6907 444.955 35.2133 444.731 35.96C444.507 36.6693 444.395 37.7333 444.395 39.152V60.936ZM435.211 49.512C435.995 49.512 436.742 49.4187 437.451 49.232V34.336C435.958 34.0373 434.632 33.888 433.475 33.888C430.899 33.888 429.014 34.5227 427.819 35.792C426.624 37.0613 426.027 38.7787 426.027 40.944C426.027 43.744 426.867 45.872 428.547 47.328C430.264 48.784 432.486 49.512 435.211 49.512Z" fill="#E79002"/>
<rect x="6.5" y="17.5" width="233" height="63" stroke="black" stroke-width="3"/>
</svg>
